<svg viewBox="0 0 160 56" xmlns="http://www.w3.org/2000/svg" role="img" aria-label="Visa">
  <rect width="160" height="56" rx="12" fill="#fff"/>
  <path fill="#1A1F71" d="M62.8 38.4h-8.1l5.1-31h8.1l-5.1 31Zm-15-31-7.8 21.3-.9-4.6-2.8-14.3s-.3-2.4-4-2.4H19.4l-.2.7s3.9.8 8.5 3.5l7.1 26.8h8.4L56.4 7.4h-8.6Zm63.6 31h7.4l-6.5-31h-6.8c-3.1 0-3.9 2.4-3.9 2.4L89.5 38.4h8.4l1.7-4.6h10.2l1.6 4.6Zm-9.5-11 4.3-11.7 2.4 11.7h-6.7Zm-11.8-12.6 1.2-6.7s-3.7-1.4-7.6-1.4c-4.2 0-14.1 1.8-14.1 10.7 0 8.4 11.7 8.5 11.7 12.9s-10.5 3.6-14  .8l-1.2 7s3.7 1.8 9.4 1.8c5.7 0 14.5-3 14.5-11.1 0-8.4-11.8-9.2-11.8-12.9 0-3.7 8.2-3.2 11.9-1.1Z"/>
</svg>
